<?xml version="1.0" encoding="UTF-8"?>
<svg id="Layer_1" data-name="Layer 1" xmlns="http://www.w3.org/2000/svg" viewBox="0 0 512 512">
  <defs>
    <style>
      .cls-1 {
        fill: #9137f0;
        stroke-width: 0px;
      }
    </style>
  </defs>
  <path class="cls-1" d="M106.87,14.18c8.02-1.07,16.1-1.4,24.18-1.74,76.05-.49,152.09-.41,228.14-.42,15.31,0,30.7-.32,45.91,1.81,13.29,1.79,26.54,4.82,38.8,10.29,21.48,9.24,39.47,26.34,49.17,47.36,8.82,18.84,10.56,39.86,11.75,60.29.02,6.5.48,12.99.62,19.48.04,12.85.43,25.7.45,38.55.11,42.19.13,84.37.09,126.56.03,17.47-.38,34.94-.61,52.41-.53,17.5-1.39,35.14-5.69,52.2-4.87,19.47-16.62,37.11-32.44,49.69-8.54,6.93-18.18,12.55-28.48,16.55-14.12,5.59-29.22,8.4-44.33,9.75-17.08,1.53-34.25.76-51.37.86-57.85-.01-115.7.04-173.56.07-12.38-.09-24.75.3-37.12-.01-13.53-.7-27.11-1.83-40.33-4.86-11.29-2.69-22.22-6.91-32.23-12.73-16.09-9.53-29.35-23.56-37.93-39.98-.69-.19-1.05-.66-.61-1.27-8.09-16.81-11.22-35.46-12.33-53.89-.86-11.95-.61-23.95-.86-35.92-.16-32.09-.03-64.17-.09-96.25.06-31.08-.14-62.15.35-93.22,0-6.9-.02-13.8.43-20.69.47-17.88,1.79-35.92,6.69-53.23,5.3-18.96,16.25-36.7,32.23-48.75,16.89-13.15,37.95-20.3,59.16-22.91ZM195.1,83.83c-13.7,4.09-26.43,12.05-34.97,23.47-4.44,5.85-7.48,12.6-9.78,19.52-.25,1.24-1.78,1.22-2.73,1.66-17.63,5.5-33.42,17.79-41.18,34.51-5.45,11.11-6.72,23.77-5.44,35.93-9.77,7.68-18.17,17.33-22.87,28.83-3.49,8.19-5.8,16.94-6.21,25.82-.44,13.99,3.25,28.22,11.14,39.93,4.77,7.02,10.73,13.54,18.33,17.63-.96,8.99-1.23,18.23,1.31,27.02,3.35,12.55,10.93,23.97,21.31,31.99,7.49,5.71,16.28,10.12,25.74,11.49,1.57,5.44,3.25,10.9,5.96,15.92,4.64,9.1,11.89,16.87,20.69,22.24,10.35,6.36,22.46,9.74,34.61,10.41,13.2.59,26.79-2.9,37.41-10.76,3.3-2.38,6.06-5.36,8.85-8.27,9.28,11.08,23.56,17.61,38.05,18.44,18.69,1.02,38.02-5.2,51.76-17.86,8.71-8.1,14.6-18.8,17.67-30.13,9.45-1.85,18.25-6.21,25.96-11.82,8.72-6.68,15.5-15.75,19.48-25.88,4.32-10.36,5-21.85,3.64-32.87,2.07-1.44,4.11-2.94,6.03-4.56,15.98-13.48,23.72-34.92,22.24-55.33-1.1-11.32-4.57-22.47-10.51-32.26-4.59-7.73-10.95-14.27-17.85-20.04,1.59-12.12.11-24.73-5.14-35.88-4.49-9.69-11.55-18.23-20.37-24.42-7.1-4.84-15.07-8.34-23.33-10.79-1.64-.32-1.34-2.29-1.87-3.47-2.89-9.44-8.3-18.15-15.51-25-6.76-6.63-15.26-11.38-24.18-14.59-13.73-4.67-29.09-5.73-43-1.21-8.53,3.02-16.79,7.78-22.06,15.22-5.32-6.59-12.43-11.78-20.52-14.58-13.68-4.78-28.86-4.39-42.67-.3Z"/>
  <path class="cls-1" d="M202.99,94.27c10.55-2.38,21.88-1.78,31.87,2.46,6.19,2.54,11.6,7.13,14.63,13.05,1.95,4.03,1,8.59,1.29,12.88.76,24.93.47,49.88.63,74.83,4.31.07,8.61.04,12.92.05-.02-17.45,0-34.91-.2-52.36-.19-11.18.12-22.37.23-33.55.33-1.58,1.72-2.7,2.62-3.99,6.08-7.79,15.48-12.66,25.26-14.2,9.32-1.49,18.9.12,27.77,3.07,10.19,3.48,19.53,9.99,25.36,19.01,3.43,5.33,5.78,11.29,7.17,17.45.41,1.56.63,3.2,1.42,4.64.95.83,2.32.91,3.5,1.3,12.19,2.88,23.82,9.05,32.07,18.45,6.73,7.33,10.71,16.92,11.51,26.73,1.01,6.56-.68,13.07-1.12,19.6-.3,1.29,1.13,1.82,1.93,2.51,9.28,6.69,17.43,15.19,22.34,25.52,5.32,10.9,6.4,23.45,4.39,35.28-1.81,8.88-6,17.31-11.9,24.26-4.77,5.35-10.84,9.35-16.63,13.49-.09,3.47.92,6.85,1.43,10.27.94,4.45.19,8.99-.31,13.45-1.82,10.34-6.53,20.52-14.68,27.52-6.71,6.27-15.2,10.44-24.03,12.96-2.56.91-5.37,1.35-7.69,2.78-1.16,2.1-1.53,4.52-2.32,6.77-3.15,9.77-8.26,19.42-16.7,25.73-8.71,7.01-19.56,11.49-30.78,12.48-10.73,1.11-21.95-1.46-30.81-7.6-4.69-3.45-9.05-8.24-9.86-14.13.02-17.24.03-34.48-.01-51.72-4.14.12-8.27-.07-12.41-.07-.24,16.46-.07,32.93-.53,49.38-.99,4.76-3,9.53-6.61,12.96-8.11,8.07-19.82,11.84-31.19,11.99-9.81-.13-19.55-2.88-27.93-7.91-10.06-5.33-17.83-14.6-21.39-25.26-1.57-4.28-2.39-8.8-4.21-13.01-8.06-1.98-16.16-4.35-23.32-8.6-8.81-5.53-15.98-13.69-19.83-23.27-3.06-7.5-3.84-15.74-3.2-23.75.15-3.65,1-7.26.82-10.91-3.68-2.93-7.8-5.32-11.31-8.47-9.51-7.82-15.94-19.07-17.86-31.11-2.85-16.6,2.4-34.29,13.54-47.02,4.72-5.45,10.74-9.55,16.37-14.01-2.13-10.99-2.62-22.72,1.8-33.24,4.85-12.82,15.75-22.82,28.37-28.22,4.94-2.29,10.26-3.52,15.44-5.13,2.92-8.6,5.44-17.58,10.98-25,7.72-9.52,18.99-16.2,31.21-18.33ZM172.52,167.09c-.04,6.74,2.69,13.34,7.18,18.38-10.98,14.36-21.28,29.21-31.91,43.82-5.61-1.21-11.61-.76-16.83,1.65-6.67,2.94-11.67,9.03-13.65,15.89-3.79,12.04,3.84,26.37,16.06,30.17,6.01,1.83,12.51.63,17.99-2.15,11.84,10.61,23.21,21.69,34.78,32.59-8.3,12.93-2,31.62,11.44,38.59,4.6,2.33,10.02,2.57,15.04,1.63,8.63-1.97,15.77-8.34,19.5-16.12,3.87.86,7.85.49,11.76.98,6.41.38,12.79,1.02,19.2,1.4,11.71.5,23.43.67,35.12,1.35,1.45,4.31,4,8.15,6.92,11.64,3.85,4.62,9.64,7.36,15.61,8.11,11.45,1.38,22.48-6.55,26.66-16.75,2.21-5.54,1.34-11.72-.37-17.27-2.76-8.23-11.06-13.5-19.43-14.98-3.9-.87-7.87-.16-11.79.13-.75-1.51-1.6-2.96-2.57-4.33-11.97-17.69-23.86-35.43-35.95-53.02,2.02-2.49,3.58-5.28,5.24-8,22.24,5.16,44.48,10.34,66.73,15.46.87.06.82.99,1,1.61.95,6.85,5.53,12.88,11.44,16.45,5.07,2.6,11.01,4.37,16.73,3.05,7.27-1.3,13.28-6.38,17.04-12.46,3.15-4.81,4.07-10.86,2.95-16.43-1-4.9-3.72-9.31-7.18-12.91-4.85-4.87-12.05-7.51-18.97-6.66-6.47.3-12.38,3.83-16.55,8.56-1.59,1.79-2.6,3.97-3.96,5.91-1.17.23-2.34-.23-3.48-.4-20.49-4.54-40.96-9.2-61.38-14.06-1.21-.43-3.13-.46-3.3-2.06-.94-3.43-2.56-6.63-4.43-9.66,7.93-7.92,16.15-15.55,24.32-23.23,2.97-2.77,5.75-5.78,9.09-8.13,3.17,1.95,6.26,4.29,10.07,4.89,4.15.58,8.6.69,12.54-.92,10.65-4.7,16.42-17.16,14.12-28.22-1.15-6.3-5-11.87-9.92-15.92-4.92-3.16-11.1-3.91-16.84-3.31-10.18.71-19.59,9.05-20.35,19.24-.19,4.64-.24,9.53,1.72,13.86-10.81,10.51-21.43,21.2-32.2,31.75-.81.66-1.44,1.63-2.45,1.97-2.03-.6-3.97-1.54-6.1-1.72-5.03-.35-10.24-.29-14.96,1.7-9.67-10.48-19.49-20.85-29.47-31.05,1.18-2.84,2.14-5.81,2.42-8.88,1.95-14.32-11.61-28.22-26.15-27.55-12.53,1.24-23.11,13.01-22.47,25.45Z"/>
  <path class="cls-1" d="M193.32,155.27c3.31-1.08,6.87.2,9.54,2.18,3.54,2.36,5.98,6.55,5.47,10.81-.54,4.49-4.01,8.2-8.06,10.04-4.7,1.58-9.63-1.22-12.63-4.68-3.3-3.73-3.79-9.8-.66-13.76,1.65-2.04,3.76-3.84,6.35-4.59Z"/>
  <path class="cls-1" d="M323.46,155.19c6.72-.69,14.04,4.37,14.63,11.22-.09,5.9-4.97,11.77-11.2,11.9-6.92-.19-13.11-6.84-12.09-13.72.15-4.63,4.05-8.71,8.66-9.4Z"/>
  <path class="cls-1" d="M200.56,191.13c3.47-.34,6.58-1.99,9.68-3.42,9.72,9.69,19.07,19.72,28.79,29.4-3.01,4.69-4.75,10.22-4.75,15.77.11,6.05,3.33,11.43,6.71,16.28-6.93,11.87-13.68,23.84-20.37,35.85-2.27,4.38-4.99,8.57-6.71,13.2-2.63-.18-5.21-.85-7.85-.76-3.27.01-6.47.9-9.41,2.25-11.98-11.23-23.72-22.71-35.83-33.8,1.75-3.36,3.8-6.69,4.44-10.47.75-3.44-.17-6.94-1-10.28-.92-3.65-2.96-6.9-5.35-9.79,7.41-10.37,15.12-20.52,22.67-30.8,3.33-4.37,6.23-9.05,9.63-13.37,3.12-.09,6.25.44,9.36-.05Z"/>
  <path class="cls-1" d="M254.7,220.4c3.49-.83,7.44-.68,10.53,1.29,4.12,2.39,5.98,7.3,5.96,11.83.11,6.81-8.01,11.62-14.31,9.71-4.18-.69-7.07-4.22-8.87-7.73-1.88-5.63.51-13.2,6.69-15.1Z"/>
  <path class="cls-1" d="M137.45,241.54c3.6-.81,7.55,0,10.39,2.36,3.58,2.63,5.32,7.3,4.67,11.59-1.09,4.23-4.2,8.19-8.58,9.45-6.25,1.56-13.26-2.78-14.57-8.97-1.42-5.82,1.98-12.85,8.09-14.44Z"/>
  <path class="cls-1" d="M369.84,241.61c6.06-1.6,13.33,1.79,15.3,7.78,1.56,5.33-.61,11.76-5.7,14.47-5.94,2.78-13.83-.15-16.47-6.09-1.05-2.51-1.8-5.38-.95-8.05,1.11-3.7,3.84-7.21,7.82-8.11Z"/>
  <path class="cls-1" d="M250.71,255.93c4.47.91,9.11,1.38,13.62.38.84-.01,2.11-.79,2.63.26,11.79,17.21,23.64,34.38,35.37,51.64.99,1.46,1.92,2.97,2.83,4.48-2.22,3.19-4.49,6.37-6.25,9.84-18.33-.99-36.67-2.05-55.01-3.07-3.5,0-7-.24-10.47-.68-1.34-5.56-4.39-10.59-8.48-14.6,6.12-12.1,12.73-23.95,19.06-35.94,2.26-4.09,4.33-8.29,6.71-12.31Z"/>
  <path class="cls-1" d="M204.51,310.04c4.68-1.3,10.06.36,13.05,4.15,4.62,5.15,3.94,14.28-2,18.19-6.74,5.09-17.68.38-19.32-7.56-.45-1.88-.47-3.84-.21-5.75.68-4.29,4.16-8.04,8.48-9.03Z"/>
  <path class="cls-1" d="M319.13,319.12c4.33-1.22,9.1.23,12.48,3.05,4.07,3.17,4.37,9.33,2.2,13.66-1.87,3.86-6.35,5.99-10.58,5.92-6.49-.54-11.99-6.77-11.35-13.21.27-4.14,3.12-8.23,7.26-9.42Z"/>
</svg>